# xmcd
#
# Track frame offsets: 
#        150
#        11912
#        25482
#        38811
#        51677
#        62816
#        74817
#        85627
#        98274
#        111167
#
# Disc length: 1630 seconds
#
# Revision: 0
# Processed by: cddbd v1.5.2PL0 Copyright (c) Steve Scherf et al.
# Submitted via: ExactAudioCopy v0.99pb3
#
DISCID=89065c0a
DTITLE=Robert Johnson - I'm A Steady Rollin Man
DYEAR=1900
DGENRE=Blues
TTITLE0=I'm a Steady Rollin' Man
TTITLE1=Sweet Home Chicago
TTITLE2=I Believe I'll Dust my Broom
TTITLE3=Kindhearted Woman Blues
TTITLE4=Stones in my Passway
TTITLE5=Last Fair Deal Gone Down
TTITLE6=From Four Till Late Late
TTITLE7=Come On In My Kitchen
TTITLE8=Preaching Blues 
TTITLE9=Walking Blues
EXTD=
EXTT0=
EXTT1=
EXTT2=
EXTT3=
EXTT4=
EXTT5=
EXTT6=
EXTT7=
EXTT8=
EXTT9=
PLAYORDER=
